# xmcd
#
# Track frame offsets:
#	180
#	17312
#	41113
#	55431
#	78606
#	96135
#	115050
#	128780
#	151341
#	169736
#
# Disc length: 2407 seconds
#
# Revision: 1
# Processed by: cddbd v1.5.1PL0 Copyright (c) Steve Scherf et al.
# Submitted via: audiograbber 1.83.01
#
DISCID=7809650a
DTITLE=Shylo Country - Pocketful Of Dreams
DYEAR=2005
DGENRE=Country
TTITLE0=Nothing To Lose
TTITLE1=Tears In Texas
TTITLE2=One Heartache
TTITLE3=Into The Night
TTITLE4=Pocketful Of Dreams
TTITLE5=Daybreak
TTITLE6=Two-Way Street
TTITLE7=Outside Looking In
TTITLE8=Angel
TTITLE9=I Want To Go Back
EXTD=
EXTT0=
EXTT1=
EXTT2=
EXTT3=
EXTT4=
EXTT5=
EXTT6=
EXTT7=
EXTT8=
EXTT9=
PLAYORDER=
